<svg width="229" height="20" viewBox="0 0 229 20" fill="none" xmlns="http://www.w3.org/2000/svg">
<mask id="mask0" mask-type="alpha" maskUnits="userSpaceOnUse" x="0" y="0" width="229" height="20">
<g clip-path="url(#clip0)">
<path d="M11.9672 19.274H9.81265L10.8197 11.2178H4.19204L4.68384 8.03279H11.2412L11.5223 5.50351H3.79391L2.81031 12.7166H0V1.38173H13.0913L12.9977 3.4192H16.3934L11.9672 19.274ZM15.363 2.99766H13.6066L13.7471 0H15.7611L15.363 2.99766ZM17.8454 2.99766H16.1124L16.3934 0H18.3841L17.8454 2.99766Z" fill="#231815"/>
<path d="M40.0234 5.69089L34.1686 7.93914L33.0679 20H31.007L30 9.55506L22.904 12.2717L22.3185 8.85249L40.6089 0.070282L40.0234 5.69089Z" fill="#231815"/>
<path d="M55.4334 6.01874H45.9954L45.4333 2.06089H55.4802L55.4334 6.01874ZM46.698 11.3583L46.2999 7.98595H55.5036V11.3583H46.698ZM61.5692 19.3443H47.7753L47.4708 16.9321H59.5551L60.164 3.51288H64.3327L61.5692 19.3443ZM62.061 3.0445H60.2577L60.328 0H62.3889L62.061 3.0445ZM64.4029 3.0445H62.6231L62.9275 0H64.8713L64.4029 3.0445Z" fill="#231815"/>
<path d="M87.3771 9.60191H80.1171L78.2436 19.6488H76.1124L76.2295 9.60191H69.4145L68.9462 5.85484H76.2764L76.3466 0.281067H81.8735L80.7963 5.85484H87.8923L87.3771 9.60191Z" fill="#231815"/>
<path d="M99.8361 19.0632H97.4941L102.178 1.38174H107.892L99.8361 19.0632Z" fill="#231815"/>
<path d="M119.602 19.1101H117.19L117.845 2.20141H122.951L119.602 19.1101ZM131.101 19.1101L127.073 2.03748H132.319L133.372 19.1101H131.101Z" fill="#231815"/>
<path d="M155.105 19.3677H141.92L141.616 16.7916H153.021L153.138 6.51054H140.258L139.742 2.34192H157.845L155.105 19.3677Z" fill="#231815"/>
<path d="M179.977 14.0515L168.876 19.5784H166.604L163.934 0.960175H169.321L169.204 16.6276L180.539 9.60186L179.977 14.0515Z" fill="#231815"/>
<path d="M201.288 19.4379H199.414L199.578 7.23651H193.724L192.763 19.3911H190.866L189.555 7.23651H186.183L185.621 3.25524H189.133L188.852 0.398102H194.215L193.981 3.25524H204.262L201.288 19.4379Z" fill="#231815"/>
<path d="M227.728 5.15224H209.719L209.297 1.03046H228.033L227.728 5.15224ZM227.026 10.2108L220.211 19.6721H217.705L222.623 10.3045H210.445L210.094 6.79158H227.424L227.026 10.2108Z" fill="#231815"/>
</g>
</mask>
<g mask="url(#mask0)">
<rect x="-11.7102" y="-11.7097" width="257.611" height="46.8384" fill="url(#paint0_linear)"/>
</g>
<defs>
<linearGradient id="paint0_linear" x1="245.901" y1="11.7096" x2="-0.781248" y2="11.7095" gradientUnits="userSpaceOnUse">
<stop stop-color="#FF004D"/>
<stop offset="1" stop-color="#FFB800"/>
</linearGradient>
<clipPath id="clip0">
<rect width="228.056" height="20" fill="white"/>
</clipPath>
</defs>
</svg>
